<?xml version="1.0" encoding="UTF-8"?>
<svg xmlns="http://www.w3.org/2000/svg" width="461" height="461" viewBox="0 0 461 461">
  <g id="Head">
    <path d="M135,330c-2.38-4.22-1.47-8.43-1.6-12.65.07-12.65.46-25.29.83-37.94,0,0,.82-25.34.82-25.34.18-4.3.65-8.82,2.23-13.14,3.15-8.53,10.48-14.83,18.31-19.03,7.11-3.78,15.27-5.58,19.2-12.88.83-1.53,1.07-3.04.74-4.22-.14-.28-.19-.6-.41-.86l-.28-.45c-.79-1.1-1.62-2.2-2.39-3.32-9.87-14.37-13.69-31.98-14.04-49.11-.31-8.48.42-17.37,3.7-25.46,4.57-12.13,16.4-22.53,29.95-21.75,13.49.58,24.34,11.82,28.07,24.19,2.66,8.29,2.85,17.04,2.68,25.47-.19,8.49-.88,17.06-3.37,25.44-5.25,17.31-23.21,28.8-41.14,27.54-3.38-.29-2.96-5.25.41-4.98,11.8,1.31,24.36-3.68,31.79-13.09,7.84-9.79,8.76-22.79,9.46-35,.51-12.19-.15-25.42-7.7-35.51-10.63-14.56-29.69-15.81-41.44-1.79-8.15,9.5-9.73,22.7-8.92,34.79.78,16.44,4.97,32.95,14.54,46.48.94,1.33,1.99,2.55,2.88,3.92,2,2.98,1.59,6.95.01,9.97-4.51,9.01-13.41,11.47-21.76,14.76-7.2,2.97-13.61,8.93-16.03,16.35-1.18,3.67-1.42,7.67-1.4,11.78.4,16.76,1.06,33.73,1.33,50.53.09,4.21.12,8.43.15,12.64-.13,4.21.76,8.43-1.62,12.64-1.01,1.92-3.99,1.93-5,0h0Z"/>
  </g>
  <g id="Nose">
    <path d="M160.22,136.39c6.33.3,12.76.13,19.09.92.42.07,1.09.07,1.87.58,1.61,1.15,1.02,3.33.99,4.92-.14,2.6-.28,5.46-.35,8.05,0,0-.32,10.72-.32,10.72-.02,1.7.16,3.21.94,4.14,1.66,2.21,5.25,1.73,6.44-.7.62-1.17.67-2.83.7-4.63.2-7.17.46-14.33.83-21.49.02-.5.41-.9.9-.94,9.88-1.08,19.85-1.54,29.81-1.58,1.38,0,2.51,1.11,2.52,2.49.02,1.48-1.29,2.66-2.75,2.5-9.78-.98-19.61-1.55-29.46-1.5l.9-.94c.13,7.17.15,14.34.11,21.51-.03,1.74.08,3.81-.92,5.9-2.12,4.45-8.48,5.24-11.47,1.25-1.37-1.76-1.56-4.07-1.43-6.1,0,0,.72-10.75.72-10.75.21-3.04.38-6.33.49-9.39.02-.51.06-1.23-.07-1.42-2.72-.32-5.81-.25-8.6-.06-3.52.25-7.03.78-10.56,1.5-1.36.28-2.7-.6-2.98-1.96-.35-1.59.98-3.12,2.59-3.02h0Z"/>
  </g>
  <g id="LeftArm">
    <path d="M143.51,347.5c-6.01-3.7,2.33-15.63,3.77-20.57,3.78-9.04,10.08-17.55,19.16-21.8,10.22-4.87,21.76-3.86,32.54-2.65,10.69,1.23,21.36,2.76,31.92,4.82,0,0,7.93,1.49,7.93,1.49,2.74.49,5.34,1.5,7.39,1.21,4.82-1.02,4.41-7.86,4.74-12.04.11-10.63.4-21.43.11-32.07-.28-4.33.23-8.88-2.05-12.58-.42-.55-1.35-1.48-1.81-.75-.49.75-.53,1.83-.66,2.87-.25,2.55-.28,5.16-.24,7.8.09,10.7,1.12,21.46,1.85,32.14-.03,3.4,2.07,19.58-3.96,17.83-.82-.26-1.43-.88-1.7-1.63-1.8-5.29-1.24-10.68-1.25-16.11.15-5.37.41-10.73.62-16.1.21-5.38.13-10.71.14-16.12.02-2.72.11-5.48.44-8.27.2-1.61.41-3.27,1.49-4.79,2.64-3.58,7.31-1.55,8.9,1.9,2.07,4.28,1.68,9.26,1.82,13.72.1,6.68-.03,13.51-.3,20.2-.15,4.03-.08,8.01-.27,12.09-.31,4.72-.2,11.23-5.01,14.1-3.51,1.95-7.4.15-10.85-.48-13.04-2.6-26.4-4.8-39.6-6.23-15.88-1.94-32.14-2.06-41.71,12.88-2.69,4.29-4.86,9.09-5.84,14.08-.57,3.81.23,7.63-.11,11.41-.01,3.21-4.79,5.72-7.48,3.64h0Z"/>
  </g>
  <g id="RightArm">
    <path d="M163.83,349.21c.74-5.63,2.47-11.05,5.11-16.04,1.54-2.7,2.84-5.45,5.62-7.27,2.94-1.98,6.6-.67,9.55.2,16.77,4.78,33.91,9.56,50.33,15.42,9.8,3.4,19.78,6.84,30.2,6.34,10.2-.18,19.7-7.27,21.95-17.35,1.59-6.68.93-13.78.91-20.64-.34-17.5-.82-34.97-1.78-52.44-.56-17.93-5.33-34.19-23.48-41.03-12.79-5.32-28.46-6.46-39-16.62-4.08-3.98-6.77-9.49-7.17-15.2-.09-1.9.14-3.83.87-5.6.29-.69,1.07-1.01,1.76-.72.46.19.75.6.82,1.06.24,1.71.35,3.33.56,4.92.44,4.78,2.51,9.35,5.95,12.72,10.24,9.72,24.95,10.57,37.62,16.04,19.38,7.56,24.74,25.13,25.01,44.28.7,17.41,1.06,35.16,1.16,52.55-.07,7.08.63,14.19-1.07,21.21-2.51,10.96-12.84,18.82-23.96,19.08-10.72.56-21.21-2.84-31.18-6.12-16.43-5.51-33.67-9.68-50.62-13.48,0,0-2.55-.57-2.55-.57-1.3-.24-2.17-.51-3.13.18-1.52,1.27-2.46,3.64-3.34,5.48-1.96,4.46-3.06,9.34-3.2,14.17-.31,4.76-7.37,4.29-6.93-.58h0Z"/>
  </g>
  <g id="Mouth">
    <path d="M195.75,179.23c-2.26,1.55-5.03,2.31-7.73,2.29-2.7-.01-5.33-.78-7.45-2.22-.58-.4-.73-1.2-.33-1.78.27-.4.73-.6,1.18-.55h.06c2.16.22,4.2.13,6.07-.33,1.88-.45,3.55-1.25,5.17-2.16l.04-.02c1.36-.77,3.08-.29,3.84,1.06.73,1.28.33,2.89-.86,3.72Z"/>
  </g>
  <g id="Wing">
    <path d="M218.8,136.08c3.51-3.2,7.66-5.9,11.45-9.06,3.83-3.12,7.97-6.01,12.49-8.2,4.57-2.15,9.24-3.66,13.96-4.97,14.1-3.74,28.31-6.7,42.42-10.36,9.4-2.35,18.77-4.81,28.11-7.4,1.81-.5,3.68.55,4.18,2.36.21.76.15,1.52-.13,2.2-1.99,5-5.05,9.56-8.86,13.23-11.26,10.75-27.38,14.12-42.42,13.58-.01,0,0-1.94,0-1.94,0,0,33.99-1.53,34-1.53,0,0,0,5,0,5,.24.03.52-.05.7-.13-1.3.89-2.72,2.51-4.02,3.79-1.42,1.63-3.8,3.39-5.89,4.51-12.28,7.2-27.28,8.5-40.98,5.4-.04.02.41-2.13.4-2.13,8.94,1.28,17.73,3.39,26.43,5.69,2.29.44,2.61,3.67.47,4.55-8.82,3.83-18.12,7.09-27.83,6.95-9.2-.16-18.22-2.7-26.58-6.43-3.25-1.62-6.24-3.59-9.33-5.39-2.7-1.74-5.9-2.75-8.44-4.77-1.33-1-1.72-3.57-.13-4.96h0ZM223.2,140.92c1.56-1.29,1.3-3.84-.02-4.86,0,0,0,0,0,0,0,0-.02-.02-.02-.02-.03-.02.02.01.04.03,0,0,.19.14.19.14,2.33,1.74,4.27,4.02,6.61,5.74,2.77,2.09,5.45,4.34,8.29,6.24,9.98,6.3,22.48,9.5,34.04,6.3,5.9-1.59,11.39-4.47,16.3-8.17,0,0,.47,4.55.47,4.55-8.32-3.17-16.71-6.15-25.32-8.32-1.32-.36-.91-2.32.44-2.12,4.43.72,8.93,1.05,13.38.83,9.91-.42,19.72-3.62,27.6-9.64,2.16-1.9,4.18-4.93,6.61-6.79,1.75-1.43,4.57-1.03,4.81,1.54.08,1.47-1.16,2.71-2.63,2.63,0,0-34-1.53-34-1.53-1.23-.07-1.21-1.88,0-1.94,17.97-.71,39.14-8.49,44.71-27.19,0,0,4.07,4.57,4.04,4.56-14.38,2.28-28.68,4.87-42.96,7.63-9.44,1.91-19.06,3.46-28.34,5.98-4.54,1.3-9.09,2.9-13.19,5.21-4.08,2.29-7.72,5.28-11.18,8.53-3.49,3.23-6.22,7.36-9.88,10.67h0Z"/>
  </g>
</svg>