<?xml version="1.0" encoding="UTF-8"?>
<svg id="Layer_1" data-name="Layer 1" xmlns="http://www.w3.org/2000/svg" width="975.88" height="390.53" viewBox="0 0 975.88 390.53">
  <path d="M170.26.72c1.29.58.9-.31,1.79,1.86l.26-1.08h4.91s0,1.64,0,1.64c1.57-.57,2.46-.16,3.55,1.08-.1-2.79,5.61-3.31,4.09,0,2.27.01,2.32-.23,4.07-1.41l2.94.97.07,1.53,1.95-.51.51,1.08c2.48-.44,2.88-2.14,4.9-3.29l.27,2.18c1.58-.25.37-2.01.54-2.18,1.17-1.1.85,1.37,1.63,1.08-.14-1.43.2-2.43,1.37-3.27l.27,1.09.81-1.09c1.95,1.41,3.07,1.73,1.91,4.36,1.75-.19,3.21-1.09,3.59-2.74,2.16-.27,3.72,2.58,5.42,2.73,1.38.12,4.54-.29,5.7-1.08l.28,1.65,3.53-.56V1.5c2.4,2.83,3.74.53,6.54,0v1.65s1.1-.56,1.1-.56c-.46,2.17.5,2.14,1.91,3.27l1.62-1.62c1.07.38-.85,1.87,2.82,2.12,2.46.17,1.76-1.07,2.1-1.07,1.05,0,2.1,1.67,3.53.56v1.65c1.67-1.94,3.02-.42,4.53-.64.74-.11,1.47-1.03,2.26-1.03.18,0,1.76,2.03,2.77,2.21.17-1.02,1.96-1.63,2.76-1.5.69.11.6,2.29,1.86,1.49.09-.06-.4-.86-.15-1.46,1.15-2.68,1.78-1.14,3.23-.89.42.07,1.22-.45,1.27-.37.12.18-.23,1.06.14,1.5.1.12,2.38,1.39,2.59.68v2.19c1.8-.85,4.43.85,5.2.88.86.04,4.92-1.18,6.55-.82,1.27.28,1.55,1.42,2.46,1.35.67-.05,3.88-1.56,4.55-2.03,1.02-.71.5-1.98,1.95-1.55-.11,1.54,1.83,1.49,2.57,2.35,1.25,1.45,1.03,1.48,2.68,2.55l1.25-.45.07.98h1.08s.09-.94.09-.94c2.36.99,2.35-2.3,4.83-1.43.89.31.59,1.53,2.47.8,2.2-.86-.43-2.38,2.4-1.19l.57-1.04c-.02.96,3.93,4.02,4.34,4.13,1.35.38,3.3-1.13,4.94-.33l-.55-1.08,1.37-.53c.79,2.63,3.3,1.95,4.11,2.48,1.26.83.61,2.8,3,2.9.9-2.01,2.51-2.3,4.61-2.12l.81,1.64-.27-1.64,4.05,1.13.85-1.13c-.08.94.53,1.41,1.43,1.46,1.53.1,5.69-.5,6.91-.27,1.08.21,2.42,2.09,3.1,2.32,1.09.36,3.09-1.32,3.31,1.4,1.92-1.8,4.22-.95,6.55-.84l-.03,1.38c1.55.52.94-1.25,1.98-1.59,1.58-.51,5.02.48,6.55.86.41.1,1.08-.32,1.49-.23,1.23.3,1.48,2.63,1.43,3.68l1.08-1.08.35,1.13c1.77-1.26,4.18.97,4.84.91.45-.04.91-1.08,1.71-1.33.28-.09,5.52-.21,5.84-.19.3.02,3.59,3.3,4.7,2.2l.1,1.51c.26.4,3.7.48,4.29.34,1.53-.35,3.75-3.17,4.61.88.85-1.82,4.69-1.69,6.35-1.32,2.09.47,3.21,2.61,5.52,2.28,3.4-.48,2.99.42,5.44,1.39.19.08,3.77.92,3.98.92,1.44-.02,1.48-2.42,3.68-1.08.37.23.32,1.06.71,1.07.99.03,3.81-.6,4.78-.38.77.17,1.31,1.32,2.12,1.62.74.27,4.01,1.29,4.58,1.35,2.24.27,1.41-1.74,2.5-2.22l2.59.19-.55,1.08c1.45.2,1.39.04,1.91-1.08l.82,2.19c1.65-1.31,2.23,1.19,4.18,1.46.73.1,1.49-.48,2-.42s.46,1.32,1.23,1.59c2.26.79,4.06-1.83,6.7-.95l.61,2.67.81-1.09.37.91c1.09-.24,1.46.1,1.55,1.27l1.07-1.08.56,2.17c1.8-2.99,4.19-1.16,7.08-1.08l-.39.96c2.23,2.1,6.17,2.47,9.06,1.83l.58,1.02.28-1.64c1.96.27,3.44.72,3.9,2.75,1.94,1.09,4.42-2.45,4,1.07l.54-1.64c2.91.74,5.87-.19,6,3.82l1.35-1.08c.43.26,1.86,2.58,2.02,2.64.77.27,1.75-1.29,1.54.62l.81.02-.27-1.09,3.21.11.34.98,1.36-1.1.27,1.65c1.8-3.39,6.19,1.93,8.16,2.72,3.04,1.23,4.76-.7,5.44-.53.54.13.66,1.11,1.02,1.43,2,1.77,2.68-.74,3.37-.79.59-.05,1.51,1.24,2.28,1.37,3.17.55,1.54.8,2.71,1.2.81.28,1.92-.52,2.79-.12.51.23,2.12,2.08,2.58,2.22.29.09,1.14-.5,2.07.08.51.32.8,1.64,1.2,1.65.13,0,.57-.78,1.06-.81,1.57-.09,3.37.49,5.21-.26v1.64c.83-.7,1.9.05,2.39-.02.61-.09.65-1.55,1.15-1.61.78-.09,1.69,1.71,2.04,1.98.17.14.84-.28,1.22.15.56.64.7,2.11,1.37,2.5.35.21,3.88.68,4.71.76s1.55-.51,2.08-.51c.37,0,.3.84.69,1.11.98.67,2.22.03,1.8,2.17,1.62-1.05,4.86.17,5.7,1.63,1.48-.26,2.61-2.17,2.79-2.17.92-.01,2.13.85,3.49,0v1.64s1.64-.55,1.64-.55c-.93,1.91,2.74,2.14,2.19,4.36l1.01-.44.61.98.27-1.09,2.19,2.18c0-1.7,7.52-2.48,7.9-2.18l-.38,1.36.72.77c.92.2,2.44-.6,3.21-.45,1.59.32,1.88,2.91,2.45,4.31h8.71s-.55,1.63-.55,1.63l1.37.55,1.1-2.17,1.14,1.12,2.39-.58.61,3.22,2.13.06-1.09,1.62c1.44.72,1.78-1.11,1.89-1.09,1.33.25,2.63,2.27,3.35-.02l3.29,1.57,2.37-1.01c-.8,3.42,5.89,1.83,6.98,2.84.26.25.14,1.13.4,1.53.37.57,1.07,0,1.23.15.41.38.45,1.23,1.19,1.73.38.25,2.67-.19,3.58,0,.46.1,4.59,1.29,4.81,1.42,1.44.86,1.25,2.18,2.27,3.23,1.34.35,1.44-3.52,4.57-2.39,2.89,1.05.76,2.98,3.06,4.57l.81-1.08c-.24,1.56,1.62.95,2.73,1.63v-1.64s1.09.01,1.09.01c-.49,1.45,3.51,1.36,3.8,1.64.44,1.22-1.2,3.68.3,4.34l1.64-1.63.54,1.1.54-1.1c1.52,3.17,6.7.97,7.28,1.19.06.02.11.8.47.98,2.05,1.05,3.99,1.63,5.47,2.31,1.15.53,3.49,5.23,6.12,4.82l-.51,1.03c2.49-.28,4.6,3.72,5.75,1.1l1.56.57c1.12-2.64,5.43-2.02,4.18,1.04l1.58.59v-2.18s1.89.57,1.89.57l1.11-1.12c2.23,2.52,6.43,2.61,4.65,7.08.5-.18,2.11-.57,2.47-.44.43.16-.09,1.48,1.35.98l-.55-1.07,1.37-.57c.45,1.55,1.42.03,2.17,2.19l.81-1.09v1.63s.6-1.02.6-1.02l3.37.49c1.56,3.26,4.55,2.78,4.73,6.86.85.6,1.99-.23,2.84-.05,1.07.23,3.23,2.64,5.23,2.88,1.41.17,3.02-.93,4.69-.34.86.3,2.17,3.15,3.36,3.73l.28-1.08,1.63,1.62,1.08-1.08.36,1.66c1.45.36,3.42.82,3.47-1.12l.57,1.04,1.52-.44c-.11,1.5,2.12,1.39,2.27,1.58s-1.88,3.28,1.46,3.71c1.2.16,1.64-2.37,4.57.91.29.33,2.06,4.35,2.27,4.51.39.32,2.41.23,3.14,1.21.11-.12-.97-2.06.27-2.16.19-.02,3.29,1.58,3.41,1.73.42.51.2,2.58.75,3.1.07.07,1.01-.33,1.42-.1.82.47,1.71,2,3.16,2.11,1.8.13,1.94-2.11,3.28.78l2.17-1.09,1.04,1.12,2.22-1.11.82,1.07-1.09.54c1.03.71,2.77.8,2.73,2.19l1.07-1.08c1.13,1.86,2.28,3,2.19,5.45,1.25-.95.9.13,1.52.48,1.5.85,2.81.87,3.65,2.79l.82-1.64,1.62,1.09.56-3.27c.9-.24.25.96.89,1.1,1.4.31,3.67-.88,3.33,1.81-.13,1.04-1.15,1.62-1.5,2.53.96.98,7.73-2.66,5.16,3.29l3.84,2.71c.48-1.06,1.15-1.74,2.45-1.63l-.27,1.08c3.21,0,2.78,2.24,3.81,4.35.79-1.84,2.9-.39,3-.53.25-.37-.53-1.81.54-1.64-.32,2.95,3.28.93,2.19,4.9,2.09-.97,1.59,2.73,4.37,1.85l.53,1.96,2.65-1.55c.85.58,1.06,2.54,1.16,2.64.21.22,1.15-.58,1.54-.43.05.02.08.62.53.91,1.63,1.06,5.75,4.37,6.87,6.05.19.28-.22,1.01-.18,1.06.21.23,5.35,1.28,5.95.59.1,4.48,3.34,4.61,7.09,3.82l.49,5.08,2.2.39c-.4,1.82.94,1.91,2.58,1.94,2.21.05,2.42-.08,2.09-1.97.95.65,1.86,2.24,2.73,2.77,1.14.7,1.62-.36,2.99,1.3,1.5,1.81.56,1.61.03,3.51l3.12,2.33-.43.97c3.06,1.5,6.71-.54,7.63,3.58l-1.08.79c1.76-.51,3.93,2.18,4.18,2.21,1.25.17,2.74-1.11,3.98.25,2.01,2.04-.53,3.83.02,4.63,1.82-1.22.68.37,1.22.91.88.87,4.49,3.3,4.68,3.53.34.4-.16,1.59.16,2,.16.2,1.29.17,1.83.61,3.04,2.46,2.11,1.02,4.06,1.91,1.66.76.82,2.69,3.84.84,1.76,3.04-.62,7.4,4.36,4.9l1.1,5.45c2.3-1.17.55-3.18,3.73-2.64-.22,1.24,1.41,2.29,1.49,2.9.08.55-.52,1.38-.29,2.13s1.25.71,1.48.99c.13.15-.43,3.48-.33,3.63.09.14,2.5,1.9,2.65,1.97,1.14.54,2.65.48,4.19,1.23,1.8.88,1.61,2.43,2.21,3.81.44,1.01,1.27,1.8,1.61,2.76,1.1,3.05-.62,3.49,3.03,5.74,2.77,1.71,1.69,1.65,3.27,2.97,1.03.86,2.72,1.69,3.66,3.26,1.68,2.78,2.94,10.35,4.46,12.04.13.14,2.04.23,2.98,1.94.88,1.58,0,3.59,2.38,3.08v1.08s-1.1.27-1.1.27v1.1c1.48.39.91,3.58,1.94,5.15.68,1.04,3.15,1.23,3.81,2.22.09.14.59,3.15.57,3.31-.13.87-1.1,1.01-1.17,1.18-.43.98-.64,6.66-.6,8.01.04,1.07.62,1.51.92,2.46-.96,1.43-3.07.33-4.11.38-.28.01-.19.85-.99,1.09-1.23.37-2.53.52-3.82.48-1.16-.27.35-3.43-1.44-1.85-.1.09-.51,2.35-1.17-.22-2.53.91-2.1-1.62-4.29-.92l-.53-2.5c-1.18-.41-1.51,1.67-2.45.55-1.28-1.52-.35-5.18-2.85-7.08-.52-.39-1.64-.46-1.75-.6-.06-.08.49-.66.36-.92-.06-.12-.83-.11-.92-.49-.24-1.06-.53-5.08,1.07-4.55v-.53c-1.77-.25-1.15-4.24-4.36-3.28-.67-1.51,2.18-.88.54-1.9-1.41-.88-3.39-.95-4.81-2.01.92-3.55-.57-2.18-1.36-3.87-.44-.94-.08-3.61-1.63-5.17-.25-.25-1.03-.08-1.27-.3-.54-.5-.61-1.34-1.3-1.75s-2.95.22-3.71-.4c-.1-.08-.23-1.44-1.21-2.2-1.27-.98-2.1.27-1.62-3.12l-1.04.52c-.86-2.3-2-3.4.49-5.15-.87-1.2-1.34-1.29-2.72-.82l.54-1.63c-1.45-.26-2.13.69-3,1.62-2.21-1.06-1.28-3.94-1.68-4.92-.52-1.28-4.07-3.28-3.05-5.85-2.82-1.51-6.81-1.08-4.27-5.57-1.88.73-3.32-2.74-3.6-2.77-1.15-.1-2.28,1.01-1.86,2.22l-2.67-.59c-.13-2.05-.99-3.32,1.03-4.59l-.52-.55c-2.18-.54-3.9-.8-5.83-2.08-.75-.5-.63-2.38-2.36-1.46.36-1.49,1.02-2.57-.56-3.57-1.57-.76-2.93,1.03-3.24.83-.05-.03.1-.75-.4-1.08-1.43-.95-3.22-1.56-4.53-2.74.71-1,1.99-3.57.15-3.92l.4-.97-3.27,1.09-.04-1.59h-1.34c-.3-2.27-1.8-4.82-4.07-3.02-1.5-1.58-.41-2.92-3.22-2.55l-.12-1.46c-3.65.27-3.31-4.79-7.01-5.02l1.09-.81-1.11-1.36c-1.51,1.64-1.9.29-2.97.23-5.11-.26-3.6-.73-6.96-3.15-1.05-.76-3-1.05-3.58-1.57s-.2-2.74-.92-3.73c-.36-.49-1.1.01-1.25-.12-.58-.52-.7-2.02-2.23-2.1l.48-1.01-3.81,1.63v-1.64s-1.64.54-1.64.54l.48-1.01-1.57-.91,1.1-1.89c-1.74.58-1.71-1.27-2.54-1.55-2.23-.74-4.03-1.44-6.08-2.21-1.57-.59-4.37-.94-5.42-1.36-.7-.28-3.13-4.24-2.32-5.24l-2.14,1.06c0-2.14-4.04-1.31-2.89-3.13-2.47-3.15-3.19-1.21-4.51-1.33-.9-.08-1.26-1.9-1.42-2-.24-.15-3.76.85-5.42-.31l-.53-4.11-1,.46c-.55-2.66-2.25-.74-3.35-1.25-1.36-.63-1.46-2.92-4.37-1.39.36-5.9-3.09-3.14-5.87-4.19-1.52-.57-3.45-5.93-6.17-3.62-.64.54-1.11,2.67-2.12,2.9-.93-1.36-.91-3.54-2.14-4.05l.5-1.94-2.19-.25v-1.93s-1.65.32-1.65.32l-.53-1.96-1.62,1.63c.42-1.19-3.64-2.81-4.1-2.64-.61,2.2-2.69-.6-4.63.46l.52-1.04c-2.46-.59-4.51-2.32-7.06-1.13l-.04-1.58c-2.23.53-2.09-1.04-2.71-1.39-5.06-2.84-3.04-2.01-6.49-5.94-.12-.14-2.81-1.99-2.98-2.06-1.3-.54-3.69.05-5.22-.48l1.63-1.62c-2.75.59-5.76.57-7.32-2.11-.8.51-1.87.26-2.63.5-.61.19-.78,2.09-3.44,0l.32-1.66h-2.72s0-2.19,0-2.19c-1.89-.41-1.96,1.08-2.99,2.17l-3.55-1.63.55-1.63c-2.21.77-4.91-1-5.46-3.27l-.81,1.09c-1.57-2.27-5.45-1.04-4.64-4.35l-3.26-.56v1.64s-3.29-.82-3.29-.82l-1.65-4.08-1.61,1.62-.82-1.09-.26,1.09c-1.19.6-5.43-2-4.92-3.81l-1.01.43-.61-.98v2.18c-1.7-.75-4.13-.18-3.83-2.74l-1.63.55.54-1.63c-.2-.17-1.98.8-2.94.05-.5-.39-.02-2.44-1.85-1.5-.24.13.3,1.18-.93.91l-.28-2.18c-1.03-.18-.22,1.05-.66,1.53-.28.31-1.78,0-1.79,1.19l-.85-2.17c-2.02,1.25-1.76-.68-2.73-1.34-2.92-1.98-3.31.87-3.51.79l-2.34-1.73.44-.98c-1.01.12-1.83.06-1.65-1.09-.91-.23-.35.73-.61.96-.08.07-2.05-.14-2.14-.19-.34-.22-.38-1.06-.6-1.2-.2-.12-.92.44-1.52.17-.85-.38-2.35-3.13-3.3-2.46l.44.99c-1.51-.14-1.23,3.25-2.61,2.26-.09-.06.16-.75-.26-.96-2.46-1.2-1.37-.76-3.29-2.29-2.24-1.8-5.34-2.07-7.19-3.99-.11-.11-1.03-2.12-1.27-2.55l-1.89,1.63-3.28-3.81-.81,3.27,1.08-.55-.03,1.06c-1.76-.21-.27,2.08-2.15,1.66l.54-2.17c-1.31.32-2.44.64-2.83-.96l-.98.42v-3.27c-1.09-.14-1.33.83-2.44.89-.31.02-5.72-1.16-5.96-1.36-.56-.46-.31-1.11-.34-1.71-1.22-.13.25,2-1.35,1.62s-1.85-2.85-2.97-2.12c-.18.12.37,1.56-1.12,1.03l.54-1.63-1.63,1.08c.74-1.58-2.54-3.08-2.64-3.38-.17-.47.6-1.34-.64-2.61-1.82,1.82-2.07.47-3.67.13-.58-.12-1.2.3-1.78.08-.7-.25-2.65-1.66-3-2.42-2.42,2.14-3.34-1.24-6.26-.52.2-1.02.88-1.43-.26-2.16-1.63.08-2.53,1.86-3.52,1.08l-.55,1.95-1.55-.22-.39.98c-1.34-1.35-1.21-2.71-3.55-2.18l.55-4.36c-1.44-.61-.93,1.14-1.36,1.11-.89-.07-1.18-.9-1.64-.93-.53-.03-1.17.8-1.63.77-.42-.02-2.02-1.99-2.8-2.52-.65-.44-1.52-.4-2.21-.81-.17-.1-.52-2.5-1.52.12-1.28.12-2.54-1.38-3.37-1.47-.22-.02-3.26,1.04-4.31,1.29-.48.11-.99.8-1.06.79-.42-.03-.54-1.02-.76-1.27-1.42-1.61-2.32,1.32-2.5,1.28-.75-.18-3.36-2.72-3.9-3.45-.66-.89-.15-2.44-1.71-2.64l.42-.98c-1.68-.51-3.87.54-5.22.48-2.28-.1-4.97-.52-7.05-.73-.85-.08-2.9-.94-4.03-.9l-.06-2.12-2.47,1.56-1.71-2.66-6.18-1.63c1.01-3.39-3.1-.45-3.53-2.72l-2.46.55-.28,1.64c-1.51.37-3.67-2.72-3.92-2.74-3.13-.33-.96-.11-2.64-.95-.5-.25-6.51-.79-6.99-.71s-.14,1.51-1.15,1.11c-1.66-2.77-3.29-.74-5.37-1.08-.19-.03-2.79-.94-3.23-1.12-.5-.21-.39-1.11-.67-1.06-.49.08-1.7,1.27-2.76.92l-2.17-3.1-.82,1.08-.82-.54.29-1.09c-1.72-.44-.53,1.39-1.9,1.08-1.11-3.2-3.2-.03-4.92-2.18l-.53,1.11h-1.1c-1.24-2.96-5.67,1.46-5.72-3.28-1.61-.12-2.23,1.04-3,2.18-.89-1.51-3.78-1.78-5.48-2.75l-1.32,1.11-1.11-2.17-1.09,1.63-1.63-1.63-.55,1.62-3.03-.19-.78-2.53c-1.81,1.77-4.98-2-5.71-2.05-.67-.05-1.71,1.36-2.19,1.35-.33,0-1.12-.92-1.85-1.15-1.28-.41-3.52-.53-4.56-.91-.51-.19-1.18-2.66-2.3.03l-1.36-1.08c.06,2.1-3.26.87-3.29,3.26l-.81-1.09-.58,1.14c-3.46-.43-2.69-2.17-3.86-4.26-.6-1.08-1.78-.08-.75-2.32l-2.16.59-.02,2.67-2.99-2.17-.33,1.54c-1.01.1-2.29.61-3.26.41s-1.01-1.2-1.18-1.29c-.29-.14-2.8.16-3.65-.7.51-.66.42-2.8-.04-3.23-1.67-1.61-.38,3.26-.54,3.27l-.81-1.09-1.09,1c-2.31-.59-2.49-3.53-3.08-4.17-.06-.06-.86.22-1.63-.25-.71-.43-1.15-1.42-1.25-1.42-1.17,0-3.33,1.12-4.96,1.08-.72-.02-4.59-3.98-5.18-.07l-1.89-1.07c-1.5.93.57,2.97-.54,4.35l-.83-2.17-1.08,1.08c.13-1.19-1.09-1.25-1.66-1.89-.45-.49-.35-1.41-.68-1.77-.39-.41-4.88-2.11-5.26-1.77l-.86,2.15-1.89-1.63,2.17,2.18c-.82,1.38-2.66,1.13-2.83-.47-1-.05-1.71.39-2.78.23-2.35-.36-2.32-1.72-3.8-2.63-1.61-.98-2.88-.4-4.25-.71-1.69-.38-2.38-2.26-2.14,1.4-.44.54-4.25-1.67-5.16-1.67-.3,0-.23,1.01-.65,1.11-2.6.65-5.87-1-4.55-3.8-2.1.03-.8,2.44-3.27,1.09l.03,1.92c-3.84,1.68-5.06-3.05-7.4-4.66-.47.24.01.97-.54,1.1-1.44.34-.23-1.13-1.35-1.09l.54,2.17-5.86-.66-.68-4.24-2.72,2.72-.06-1.05-1.51.39-.33-.98c-2.64,2.43-4.79-2.25-5.21,2.18h-.53c.11-1.53-1.5-1.5-2.72-1.65-.3-.93,1-2.63-.29-3.25-1.19-.57-.05,1.55-1.3,1.55l-.06,1.17-.58-1.03c-2.34,1.48-2.72-.42-2.94-.48-.74-.21-2.2-.38-3.31-.65-1.5-.36.47,1.9-1.06,1.07-.74-.41-.62-1-.28-1.62-1.6.11-3.11-.73-3.54,1.09.27-.97-2.08-1.28-2.38-1.06-.42.3-.14,2.24-1.15,2.14.2-1.64-.62-.56-.98-.72-.12-.06-.72-1.3-2.23-.96l-.33-1.56-2.68,1.64-10.46-3.31c-2.29,1.19-2.87-.97-4.76-.93-.2,0-3.83.71-4.01.79-2.01.92-.99.9-3.62,1.46-.71.15-.84.73-2.02.65-2.48-.16-1.32-2.23-2.99-3.59l-1.64,1.63-.81-1.09-1.65,2.71-1.09-1.36,1.1-.81-1.4-.04c-1.19.2-.4,1.85-2.96.58l-.56,2.18-3.26-2.18-.83,2.18c-1.1.05-2.43-1.4-2.81-1.57-.21-.09-2.16.33-2.8-.74-.45-.77.51-3.1-1.75-2.05-.08.04.84,1.47-.54,1.63.27-1.61-.41-1.88-1.86-2.2l-.87,3.29-.54-2.18c-1.2,1.04-1.76.88-3.27.55v1.37c-.27.19-4.16-.22-4.29-.4-.56-.8.03-2.11-2.52-2.62-1.67-.3-.42,2.52-.83,3.28-.77-.53-1.7.11-2.35-.01-.41-.08-.38-.77-.52-.85-.32-.17-.85.28-1.2-.23-.31-.45-.13-1.3-.64-1.69-1.23-.93-3.68-.95-2.93,1.14-3.39-.31-2.78-4.24-6.81-3.8l.28,1.61-1.63-1.08c.81,1.93-1.09,2.27-1.08,2.42.04.5,1.29,1.91.8,2.48l-1.08-1.1-.55,1.11c-2.46-.92-3.86-1.38-2.99-4.37-.99-.27-1.68.89-2.45.9-.86,0-1.98-1.3-2.83-1.36-.72-.05-1.22.88-1.99.88-.85,0-1.87-.93-2.31-.97-.24-.02-.17.93-.59,1.06-1.3.37-4.71.01-5.38-1.6l-.27,1.64c-.74-.14-3.49-.12-4.01.04-.43.13-.32,1.01-.7,1.07-.81.13-3.71-.83-5.13-.87-2.38-.06-5.18.27-7.56.35l-.05,2.13-1.95-.51-.24,1.05-1.36-1.08-.5,1.03h-2.81s-.24-1.03-.24-1.03c-.91-.25-.25,1.04-.87,1.13-2.21.33-4.25-1.55-3.5-3.86-.79.98-3.59.64-3.85.83-.62.46-.1,1.82-1.6,1.34l.54-1.63c-1.44.32-1.79.11-2.45,1.64l-.54-1.09c-1.5,2.25-5.05-.83-6.5-.59-.36.06-.06,1.89-2.18.65l-.61.46-.26,3.29c-1-1.12-2.38-.65-3.36-1.11-.65-.3-1.59-2.12-1.93-2.17-1.13-.15-2.22.68-3.09.59-.37-.04-.3-.88-.61-.98-1.88-.64-2.02.81-2.18.86-.21.07-4.28-.54-3.55-1.54l-.54,1.63-.54-1.63c-2.65.14-2.25,2.94-2.19,4.9l-.83-1.67c-1.91-.18-3.2.05-4.34,1.66l-1.64-2.16-1.09,2.17-1.64-3.81c-1.06,2.57-3.36.51-1.91,3.81l-1.36-1.64-.55,1.65c-2.24-1.09-5.37-1.75-6.54-3.82l-.28,2.18-.54-2.18c-1.96-.5-1.47.97-2.72,1.64v-1.64c-2.58.1-3.23,4.15-5.73,4.19-.34,0-5.32-2.8-5.44-3.64-2.5,1.09-.94,3.6-4.65,2.73l.55,1.08c-.74-.15-1.39.41-1.96.51-1.53.28.54-1.67-1.03-1.04-2.2.87-3.88.87-6.15,1.49-2.86.78-.74-1.53-3.4-2.04l.54,1.63c-1.59.34-2.45.44-3.82-.55v1.64s-10.68-.5-10.68-.5l-.54,1.05c-1.85-.27-7.31-1.46-8.33.08l.46.99-3.46.49-1.18,2.24.27-1.63-1.88.58c-.57-.77.03-1.43-1.39-1.13l-1.1,3.27-1.9-2.18-.55,2.19-5.64-1.73.47-1-4.82,2.25.47,3.73c-2.62.25-4.77,4.05-5.5-.51-1.3.2-3.13.94-3.5-.5l-1.29.42c-.64-1.82-4.43-2.69-5.4-3.39-1.83-1.32-.2-2.35-4.43-1.52-.14-1.54-1.86-3.73-1.72-5.1.18-1.68,2.7-1.8.63-5.12,1.94-.52,1.9-3.12,4.3-2.81l-.55-1.37-.83.2-.26-1,4.08-1.67c.53,1.04,1.12,1.75,2.46,1.66-.41-2.96,3.32-1.73,2.73-4.36l.54,1.08c2.26-.69,1.92,1.47,3.82,1.09l-.55-1.07c3.46-1.06,5.15-2.52,8.72-.56v-2.18s1.09,1.09,1.09,1.09l.29-1.1,2.09,1c1.39.04,1.64-1.83,2.33-2.02,1.5-.42,4.9,1.59,5.31,1.52.76-.13,1.35-1.9,2.83-2.13,1.76-.28,3.44.86,5.15,1.1v-2.73c1.71-.66,4.79,1.43,5.19,1.45.15,0,2.87-.63,3.01-.69.99-.45,2.11-2.64,3.06-2.82,1.07-.21,2.4,1.14,3.47,1.31,1.73.28,3.8-1.39,5.99.21v-2.17c.42-.23,2.73.74,3.45.56.57-.14,0-1.88,2-.56l-.54-1.63c.8-.01,1.57-.27,2.36-.33,3.02-.24,2.91,2.43,6.11,3.06l.48-1.05,1.61.54c.92-1.83,4.17-1.29,5.92-2.22,1.08-.58.64-2.28,3.82-1.04.54.21,1.28,1.95,2.88,1.93.54,0,1.16-.69,1.71-.69,2.99-.02,6.97.66,8.69-2.41l3.46,1.66c-.15-.77,3.22-3.14,3.69-3.17,2.29-.08,3.09,1.85,5.06,2.11.33.65-2.34.66-1.08,1.63.8.61,2.17-.29,1.96-1.37-.13-.67-1.18-.94-.87-1.89l1.62,1.08c-.62-1.4,4.04-1.47,5-1.34,1.78.23,3.14,2.26,5,2.28,1.02,0,3-1.33,3.36-2.02,1.72,2.14,5.62-.03,7.11.02.7.02,1.22.85,1.64.88,1.2.1,1.97-2.41,3.26.73l-.27-1.35c1.49-2.14,3.08-1.36,4.64.27l.61-1.12,3.22,1.12,1.07-1.09c.67,1.31,1.57,1.01,2.33,1.32.15.06.09.88.39.86,1.03-.08,1.68-1.92,2.24-2.06.26-.06,3.51-.65,3.82-.68,1.4-.15,1.78.58,2.8.89.67.21,1.02-.88,1.5.76.37-.9,1.83-.61,2.15-1.05.28-.39-.36-1.06.87-1.9,2.36-1.6,2.1-.1,2.29-.01Z"/>
  <path d="M962.64,264.44c.32.2.59,1.08,1.52,1.49,1.21.54,2.41-.45,2.49,1.57h.53c-.24-1.53,1.01-1.13,2.19-1.09l.53-1.08c-.2,1.55,2.13,2.73,2.38,3.42.37,1.02-.24,1.92-.17,2,.1.13,2.04.39,2.72.87.28.2,1.53,3.68.83,4.12l-1.91.76,1.08,2.45c-2.94-.23-2.17,1.91-2.92,3.1-.28.43-1.58,1.06-1.78,1.45-.47.91-.78,3.9-.9,4.07-.81,1.1-4.82,2.12-4.56,3.66s1.78.58-1.27,2.77c2.02,3.99-2.64,10.25,2.71,11.93-.73,1.39-2.4,3.3-1.62,4.35l-1.09-.27,1.08,1.91-.97.34-.06,2.88-2.24.32,2.18.54c.43,2.17-1,2.06-1.08,2.19-.2.32.79.77.84,1.32.17,2-1.07,6.08-3.57,5.76l1.09.81c-2.61.93-.6,2.16-2.17,3.83,1.69.42,3.59,3.4,3.17,4.9-.1.36-1.47.02-.5,1.31l-2.14.6,1.08,2.72-1.63.54h3.27c.11,1.14.03,4.08-1.06,4.66-.6.32-2.5-1.02-3.3.53,2.69,1,.2,1.24-.55,2.44,2.91.58,1.62,1.57,1.66,2.94.01.35.9.27,1.18,1.1.53,1.59,0,4.26-.7,5.75l-1.04-.52.55,2.18c-.84-.22-3.42,1.82-3.71,2.32-.64,1.08,1.74,4.9-1.74,5.33-.31.57,3.15,1.47,2.6,4.08-.03.15-1.43.75-.99,2.63.06.26,2.84.97.13,1.52,1.37,3.45-2.57,4.5-5.02,5.66l1.05,1.04c-1.14,1.74-3.45,6.8-5.13,3.59l-1.92,1.1-1.09-1.64c.87,1.75-.25,3.96-2.18,2.72.43,3.26-2.14,3.46-4.58,2.8l-.33-3.88-1.91,1.09c-.3.14-.09-.84-1.03-1.2-1.9-.71-2.77,1.12-2.55-1.48-1.57.76-1.57-1.41-3.12-1.79l.44-.98c-1.53.43-2.36.52-3.77-.35-.66-.41-4.74-4.48-2.23-4.28-.98-2.45-3.63-2.45-4.65-3.57-.62-.68-.39-2.75-2.02-3.65-1.29-.71-3.12.88-3.97-1.77l-1.89,1.08c-.43-1.52-4.25-6.66-5.45-7.29-.53-.28-1.37.16-2.04-.15-3-1.41-1.06-4.31-1.24-4.54-3.43-.1-2.54-1.69-3.79-4.13-5.81,1.51-4.14-2.72-4.4-2.96-.59-.53-1.31.13-1.16.96l-2.64.12c-.66-2-1.17-4.28,1.09-5.17-.02-1.96-2.7-1.81-3.48-2.4-.6-.46-.31-1.5-.89-1.99-.44-.37-2.55.29-3.19-.37-.37-.38.21-2.25-2.28-2.06l.55-1.07c-2.73.38-3.14-2.63-6-1.1.31-2.6-1.81-6.09-2.17-8.5-.17-1.11-.11-5.86.9-6.14.52-.14,1.29.45,1.84.17.25-.13,1.26-1.81,1.76-2.19.17-.13.71.12.92-.04,1.75-1.32,2.2-3.43,5.5-2.59l.53-1.96c1,.38,2.59.3,3.44.66.79.34.69,1.26,1.33,1.5,1.24.47,2.98.43,3.94-.53v1.64s2.21-.33,2.21-.33c.31,2.32,3.04,2.2,1.6,4.14,2.46.09,1.7,1.08,2.71,2.71l-1.07.29c1.78,1.09-.03,3.61,2.03,4.22l-.39.96c1.72.64,3.44.27,5.18.3.42,0,.84.7,1.54.66.49-.03,1.78-1.17,2.74-.93.41.1.32.8.62.94.23.1,1.1-.25,1.57.07s.24,1.07.55,1.46c1.14,1.41,1.4,1,2.71,2.82s2.22,1.2,4.16.69c1.26,2.25-.92,3.26-1,3.54-.14.51.74,1.73.73,2.18-.02.53-1.03,5.03-.81,5.18,2.2-1.08,2.12.24,3.31.8,2.04.97,2.52-.26,2.69,3.56l2.73-.54-.56,1.08c3.18-.95,1.21,4.39,1.67,4.89.12.13,1.1-.26,1.65.35.4.44.84,2.22,1.06,2.93l2.44-1.1.82,1.1c.03-1.81,1.95-2.15,2.75-3.13,1.54-1.91,1.96-6.32.53-8.31l1.54-.11.2-1.42,1.54-.11c.14-.1-1.66-2.6-1.9-2.79-.93-.73-3.5.73-2.17-2.64.77-1.94,4.04-2.35,1.36-5.2l2.15-2.18-2.71-.27.48-3.22-1.02-.58c1.74-1.3,2.24-.99,4.35-.56.48-1.49-.98-1.96-1.35-2.74-1.38-2.94,2.6-5.35,1.9-5.98h-1.65s.4-.99.4-.99l-.93-.36,1.22-2.92,1.5-.1-.44-8.32c1.69-2.77,3.91-5.66,3.7-9.11l-1.62-.02c1.83-1.74.04-1.76-.02-2.99,2.08-.49.45-1.64.83-2.5.36-.81,2.13-.73,1.98-1.86-.12-1.25-.06-3.08-1.69-3.01v-.8c1.36-.6,2.63-2.76,2.97-4.14.32-1.28-.28-1.95.44-3.9.8-2.17,3.15-3.7,3.55-4.63.75-1.71.37-5.33.38-7.26l1.66-1.11,2.98,1.12.03-1.62,2.15-.02-.54-3.81c2.05.48,3.31-.49,5.26.75Z"/>
</svg>