<?xml version="1.0" encoding="UTF-8"?>
<svg id="Layer_1" data-name="Layer 1" xmlns="http://www.w3.org/2000/svg" width="211.28" height="79.46" viewBox="0 0 211.28 79.46">
  <path d="M210.62,77.69c.46.21.54-1.06.66-1.26-.86.1-.71,1.58-.66,1.26Z" fill="#ed1c24"/>
  <polygon points="202.03 78.63 202.29 78.17 200.81 79.1 202.03 78.63" fill="#ed1c24"/>
  <path d="M194.62,76.62c.11,2.26,2.77.44,3.89,1.51l.09.53,1.04-1.51c-1.67-.15-4.06.37-5.02-.53Z" fill="#ed1c24"/>
  <path d="M192.05,71.03c0,.87-1.04.44.82.52-.06-.11-.07-.17-.1-.25-.16-.03-.37-.1-.72-.27Z" fill="#ed1c24"/>
  <path d="M192.77,71.3c.78.17-.29-.82,0,0h0Z" fill="#ed1c24"/>
  <path d="M189.13,70.66l1.22-.39c-.06-.54-.91-.92-.47-1.16-1.14.07-1.09.6-.75,1.55Z" fill="#ed1c24"/>
  <path d="M187.7,71.84l.62-.13c-.03-.23-.14-.33-.62.13Z" fill="#ed1c24"/>
  <path d="M189.62,71.43l-1.3.28c.04.37-.16,1.04.58-.07-.28.58.12.06.72-.22Z" fill="#ed1c24"/>
  <path d="M190.15,71.94c.42.62,1.07,1.13-.17,1.52,2.02.32,2.17-1.2.17-1.52Z" fill="#ed1c24"/>
  <path d="M193.63,78.64l.6.82.87-.5c-.43.25-1.33-.98-1.47-.32Z" fill="#ed1c24"/>
  <path d="M183.33,67.53c-.21.41-.07,1.26-.19,1.84l.9-.24c-.27-.43-.89-.95-.71-1.6Z" fill="#ed1c24"/>
  <path d="M183.14,69.36l-1.36.35c.95.43,1.25.14,1.36-.35Z" fill="#ed1c24"/>
  <polygon points="186.79 74.04 189.12 73.07 186.43 73.95 186.79 74.04" fill="#ed1c24"/>
  <polygon points="179.23 65.97 180.21 65.21 178.56 66.29 179.23 65.97" fill="#ed1c24"/>
  <path d="M176.44,65.09c.77-.64-.07-1.61.6-1.93-.79-.14-1.68.3-2.5.7.74-.11,1.34.24,1.9,1.23Z" fill="#ed1c24"/>
  <path d="M173.22,64.39c.38-.07.83-.29,1.32-.53-.39.06-.82.2-1.32.53Z" fill="#ed1c24"/>
  <path d="M180,68.82c.01-.29.1-1.03-.4-1.53l-.02,1.36c.13.05.27.11.42.18Z" fill="#ed1c24"/>
  <path d="M179.58,68.69v-.04c-.45-.21-.77-.35-.9-.41.11.06.39.19.9.45Z" fill="#ed1c24"/>
  <path d="M180.11,68.87s-.07-.03-.11-.05c0,.13,0,.18.11.05Z" fill="#ed1c24"/>
  <path d="M184.24,71.97c-.88.45-2.5.7-1.54,2.19.76-.66.21-1.52,1.54-2.19Z" fill="#ed1c24"/>
  <path d="M180.09,70.57l1.07.7c.09-.33.05-.87.49-1.09l-1.56.38Z" fill="#ed1c24"/>
  <polygon points="179.38 70.74 180.09 70.57 179.69 70.31 179.38 70.74" fill="#ed1c24"/>
  <path d="M174.72,66.29c-.7.32-1.26.14-1.91-.02.56.5,1.19.9,1.83,1.16.24-.34.79-.9.07-1.14Z" fill="#ed1c24"/>
  <path d="M177.03,67.57s-.09.01-.14.03c.03.13.07.18.14-.03Z" fill="#ed1c24"/>
  <path d="M166.85,63.72c0,.08,0,.17,0,.26.04-.07.07-.13.11-.19l-.11-.06Z" fill="#ed1c24"/>
  <path d="M174.67,67.69c.4.43.82.25,1.24,0-.42-.02-.84-.09-1.27-.26-.11.15-.16.26.02.27Z" fill="#ed1c24"/>
  <path d="M171.33,64.25c.15.35.35.68.57,1.01-.09-.48-.35-1.28-.57-1.01Z" fill="#ed1c24"/>
  <path d="M176.86,67.2s.06-.02.09-.02c-.06-.32-.09-.19-.09.02Z" fill="#ed1c24"/>
  <path d="M176.86,67.2c-.32.07-.64.29-.94.48.34.02.67,0,.98-.08-.03-.11-.04-.26-.04-.4Z" fill="#ed1c24"/>
  <path d="M161.57,70.37c.71-.97,2.4-1.42,3.04.25,1.48-.32,2.3-4.23,2.24-6.65-.22.47-.48.88-1.8,1.06.04.73,1.87,2.48.46,3.04-1.73-.09-1.17-.97-1.39-1.76-.37,1.76-2.89,1.35-3.66,3.09.62,0,1.21,0,1.77-.03-.13.31-.91.55-.66,1Z" fill="#ed1c24"/>
  <path d="M168.93,65.02l.52.06c-.45-.41-.64-1.01-.95-2.17-.99.2-1.33.53-1.54.87l2.2,1.14-.23.1Z" fill="#ed1c24"/>
  <path d="M171.54,65.95c-.86,1.04-2.2,1.07-2.05,2.65,1.41.5,1.38-.58,2.42-.77-2.34-.62.91-.4-.41-1.74.51-.02.93.07,1.32.17-.34-.31-.65-.64-.91-1.01,0,.04.01.06.02.1h.01s0,.02,0,.02c.03.19.03.29-.04.16-.01.01-.04,0-.06,0-.08.16-.18.29-.29.41-.53-.51.03-.35.29-.41.03-.06.07-.1.1-.17v-.02s-2.47-.27-2.47-.27c.39.36.99.57,2.08.87Z" fill="#ed1c24"/>
  <path d="M180.55,76.35c-.03-.13,0-.22.03-.31-.2.1-.3.18-.03.31Z" fill="#ed1c24"/>
  <path d="M179.86,75.28c.79-.71,1.63-.19.72.76.45-.21,1.46-.47.64-1.42l-.22.11c-.78-.74-1.41-2.69-1.18-2.8-.13,1.19-.18,2.06.05,3.35Z" fill="#ed1c24"/>
  <path d="M175.43,70.93l-2.11-.14.55,1.42.2-.64c.98.66,1.05-.2,1.37-.63Z" fill="#ed1c24"/>
  <path d="M166.9,63.04l.79-1.14c-.59.44-1.25.85-1.79,1.32.27-.08.67-.11,1-.17Z" fill="#ed1c24"/>
  <path d="M165.52,62.6l.68-1c-.18.18-.38.35-.58.52-.04.16-.07.31-.09.48Z" fill="#ed1c24"/>
  <path d="M78.82,42.06l.11-.84c-.12.4-.14.66-.11.84Z" fill="#ed1c24"/>
  <path d="M75.27,48.06l.71-.06c-.29-.15-.54-.19-.71.06Z" fill="#ed1c24"/>
  <path d="M130.17,37.49c-2.15-1.93-2.66-1.97-1.52.17.56-.37,1.06-.35,1.52-.17Z" fill="#ed1c24"/>
  <path d="M88.79,58.49c-.06.17-.12.34-.18.51.66-.74,1.27-1.44,1.83-2.07-.5.47-1.06,1-1.64,1.55Z" fill="#ed1c24"/>
  <path d="M81.9,67.27c-.24-.2-.45-.42-.63-.65-.01.33.17.56.63.65Z" fill="#ed1c24"/>
  <path d="M88.43,21.71c-.48,0-.97.02-1.46.06-.05.15.73,0,1.46-.06Z" fill="#ed1c24"/>
  <path d="M167.04,45.57c.82-1.28,1.29-2.32,1.58-3.18-1.12,1.77-2.52,3.1-1.58,3.18Z" fill="#ed1c24"/>
  <path d="M94.77,42.23c-.22-.1-.5-.13-.86-.09.18.13.44.17.86.09Z" fill="#ed1c24"/>
  <path d="M169.46,39.08c-.65,1.03-.26,1.87-.84,3.31.47-.91,1.78-2.6.84-3.31Z" fill="#ed1c24"/>
  <path d="M35.35,36.85c-.08-.02-.16,0-.24-.04.07.16.15.13.24.04Z" fill="#ed1c24"/>
  <path d="M7.37,40.5c.15-.22.47-.49.77-.75-.21.05-.45.26-.77.75Z" fill="#ed1c24"/>
  <path d="M163.63,60.25c.07.14.17-.02,0,0h0Z" fill="#ed1c24"/>
  <path d="M157.84,63.7c-.23,0-.48.04-.84.19.39-.13.65-.18.84-.19Z" fill="#ed1c24"/>
  <path d="M159.56,39.96s-.02,0-.04,0c-.17.31-.13.25.04,0Z" fill="#ed1c24"/>
  <path d="M162.89,60.72c.19-.13.36-.26.49-.37-.13.07-.29.18-.49.37Z" fill="#ed1c24"/>
  <path d="M163.63,60.46c-.07.08-.11.14-.14.19.27-.07.42-.14.14-.19Z" fill="#ed1c24"/>
  <path d="M163.6,60.04c0,.09-.1.19-.23.31.11-.06.2-.1.25-.1-.01-.04-.03-.1-.02-.21Z" fill="#ed1c24"/>
  <path d="M75.12,16.56s-.09-.05-.15-.09c-.4.67-.19.52.15.09Z" fill="#ed1c24"/>
  <path d="M119.27,54.25s.03-.06.04-.08c-.03,0-.07-.02-.09-.02l.05.1Z" fill="#ed1c24"/>
  <path d="M117.63,55.72c.36-1.8.89-1.73,1.6-1.57l-1.66-3.43.07,5Z" fill="#ed1c24"/>
  <path d="M85.9,29.22l-1.68.62c-.87-2.36.18-3.01-1.82-2.72,3.81,2.13-2.95,5.97.5,8.15-.53.34-1.08.7-1.64,1.08.27-.38.07-.51.34-.89-3.63,2.28,1.87,2.72-.52,5.49-.98,1.03-2.16,1.86-2.28,1.11-.1.83-.19,1.62-.23,2.36-.49.7-1.3.68-.8-.05l-1.67,3.62-.15.02c.56.32,1.28,1.03,1.64,1.3-1.25,1.1-.39-.21-1.21.24.14.47.29.9.46,1.31-1.68,1.22-2.67.61-1.67-1.09-6.72,3.92.59,1.11-4.79,6.48.03-.5.09-1.03.18-1.59-3.52,2.32-3.74,4.04-6.76,7.42.79-.55,6.71-7.03,8.01-5.91-.74.8-1.34,1.74-.62,2.14-2.21,1.25-2.2,2.08-2.72,3.38l-2.94,1.76c.13,1.08,1.72-.05,2.67-.09-1.06,1.82-3.62,3.92-5.85,5.81-.93,1.71.28.45,1.58-.79,5.64-4.92-1.41,2.53,1.32,3.94-.92,1.56-1.87,1.68-3.19,2.96.8-.36,2.01-1.23,2.77-1.7-.03.2-.96.98-1.41,1.35,1.19-.5,5.95-5.03,6.44-4.54-.93,2.39-.59,2.83,3.15-.14-.36.76-2.47,2.36-3.65,3.7,6.5-4.53,5.32-3.55,11.28-8.45.13.41.32.79.59,1.14.82-3.28,7.51-6.51,8.28-10.1,1-.75,1.95-1.48,2.82-2.18-.09.36-.84,1.33-1.93,2.59.29-.28.56-.55.79-.79-.22,1.41-1.84,2.95-3,4.31.07-.44.21-.94.38-1.46-1.81,2.02-4,4.35-5.19,6.08.46-.44,1.05-.89,1.57-1.23-1.54,1.64-1.47,1.89.58-.16-.53,1-1.03,1.98-1.49,2.95l1.03-1.36c.95.09,2.01.14,3.2.13,4.16-3.58,7.56-8.3,11.56-11.11-.99,2-.49,2.86-.7,4.96-1.42-1.6-4.31,2.82-6.02,2.72,1.15-.21.54.97.05,1.49,1.81-1.32,3.46-2.58,4.95-3.78-.36,1.76.73.94,1.89,1.17-.58-3.01,3-3.16,4.36-4.6.29.97.09,2.13-1.95,2.57,2.55,1.58,2.12-4.39,4.47-3.23-.42.17-.71.11-.75.66.45-.87,2.76-1.47,2.78-.17l-.35.13c2.45-.43,7.17-2.2,6.82-4.74.12.31.55,3.04.56,3.58.59-3.17,1.23-6.32,1.91-9.48.22,2.21,3.05,6.84,1.42,8.58.65.14,1.44.3,2.42-.78-.46-.19-1.8-2.79-1.33-3.13,2.1,1.95,1.36.96,3.68,2.51-.7-.3-.94-3.79.02-3.93-.01.53.93,3.26.69,3.7l1.45-3.86c-.43.74.6,2.8,1.35,3.59-.4-.59,1.99-.43,2.52-.9l-1.16-.53c2.71-.12,1.46-5.25,4.12-5.67-.17.75.18,4.35,1.59,4.48.21-1.81.87-8.73,2.99-10.51l.65.87,1.59-1.47c-.64,2.78-2.64,8.76-3.83,11.23,1.14.55.52,1.08,1.95.67.7.79-.49,1.55-.9,1.7,1.16-.06,2.32-.11,3.49-.13-.56-1.95,2.18-2.51,1.73-4.13l-3.27,2.8c-.58-1.94.97-6.04,3.49-6.19.77.66.22,3.62.41,4.27.17-.43,1.22-1.64,1.57-1.15-.17.4-.32.79-.43,1.18.55.58,1.26-2.99,1.9-1.11.31-.15.02,2.61.41,1.36.55-2.44,1.91-9.95,3.3-11.88,6.08,2.69-.16,6.09-1.19,9.53.33-.62,1.06-1.43,1.36-1.71.08.47-1.25,1.95-.36,1.55,1.65-2.36,1.52-.05,1.71-2.04,1.41-.81.6.35,1.67.1.84-1.43,5.9-5.65,7.57-5.82-.48.38-.6.75-.93,1.22,3.08.44.72,4.15-.01,5.59-.81.62-1.98,1.8-3.04,2.07.42-.05,1.27-.28,1.1.23-2.72,1.8.02-.85-3.06,1.04,1.6-.71,1.74.1,2.31.66,1.79-.49,1.82-1.81.52-2.2,2.54-1.46,5.45-1.79,5.35,2.22-.26,2.55-1.91,1.01-1.72,1.46-2.14,4.78,5.3,8.54-4.31,6.26,0-1.61,1.84-1.71,2.28-3-.42.4-.85.83-1.25,1.08-.31-.64-.23-1.85.44-2.29-2.22,1.41-3.33,6.59-5.33,8.85.42.44.71,1.21,1.62.58-.03-.27-.04-.54-.03-.81,1.53-1.03,1.57.97,2.71-.1.69.68,2.6.92,2.84,1.95-.6.4-1.18.82-1.74,1.23.51-.35.45-1.08-.39-1.09,1.08.27-.7,2.76,2.11,1.43.1-.42.25-.83.43-1.22,1.09.05,3.32-1.34,4.02-.64.98-1.58-.34,0,.89-1.71-1.79,2.11-1.16-.65-3.16,1.46,1.99-1.77.19-1.12,2.42-2.56-.7.29-1.34.7-1.09.17-.22.05-.49.1-.65.11.02-.02.03-.03.05-.05-.04.06-.3.07-.12.07-1.37,1.18-2.46.7-3.21-.51.51-.46.73.07,1.57-.24-.34-.11-.67-.25-.99-.43,1.19-.06,2.46-.91,3.4-.24l.28-.49c.92-.23,1.3-.36.86-.76.19-.25-.6-2.76-.03-1.42l.36-4.2h.33c1.3-4.94.42-7.71,3.77-12.73-.39-1.2-.72-1.57-1.14-3.13.25-.34.49-.68.73-1.02-1.12-.79-1.85-3.36-3.54-2.54.72-3.54-6.9-2.47-8.84-2.32l-.92,1.64c-2.45.22-4.68.89-7.16,1.9l-.09,1.38c-2.33,1.5-5.62.06-8.26.68.05-.54.66-.52,1.13-.3-3.34-2.43-5.3,3.32-8.21,1.72-.51.61-.99.55-1.49.31.06-.02.1-.05.14-.1-.07,0-.16.02-.26.04-.32-.16-.66-.37-1.01-.51.33.26.64.47.88.54-.47.13-1.15.46-1.77.96l-.63-1.33c-.05.03-.1.04-.15.08-.81-.35-.39.8.22,1.77-.3.32-.55.67-.72,1.07-1.11-2.13-1.64,1.2-3-1.03-.18,1.3-3.28,1.79-3,4.36-.11-.32-.35-.42.02-.53-.84-.08-1.69-.17-2.19.72l-.81-1.68-1.02,2.85c-1.31-.8-1.92-1.3-1.29-2.95-1.86,2.77-1.77,1.34-3.24,4.02l-.23-1.17c-.73.26-1.45,2.14-2.18,1.33-2.36-1.77-7.66,2.31-10.59.88.05,3.69-.67-1.37-1.28,1.66.06-.89-.02-1.36.46-2.29-1.43,1.16-.64-.95-2.47,1.93.46-1.04.99-1.64,1.22-2.24-1.14,1.55.08-.63.47-1.05-.57.36-2.92,3.91-5.15,7.25.26-1.28-.03-.99-2.32,1.53.55-1.02,1.16-2.11,2.24-2.82-1.49-.2-1.89.42-3.83,2.33.56-.72-.44.04-.92.47-.66.24-1.61.11-2.34,1.19-4.22,3.95-2.22,1.54-3.42,2.27.56-.44,1.48-1.69.17-.84-.29.14-.46.08,2-2.55-1.31,1.14-8.25,7.01-3.39,2.04,3.45-3.24,4.35-4.78,1.22-1.92-1.13.03,9.92-7.96,9.79-7.9,1.58-.78,3.34-2.25.71-.6-1.35.81-3.26,2-3.39,1.76,1.86-1.15,4.49-2.51,5.01-3.03,1.23-.63-4.71,1.42-1.18-.69-1.23.54-2.55,1.22-3.15,1.07-.34-.5,4.94-2.5,2.15-2.63.32-.11.59-.17.83-.19-.52-.37-.3-1.53-1.46-2.2,2.79.15,2.5-.54,2.4-1.67-.02-1.31.29-3.24,2.23-2.05.49-1.05.95-2.12,1.42-3.18l.37.3c1.31-1.84.64-3.09-.01-4.25.51-.33.73.19.93.33,1.92-2.35,3.07-4.64,1.47-7.73.56-.12,1.12-.25,1.68-.39.62-2.81,4.25-7.16,2.97-10.12.18-.06.48-.14.66.08-.9-2.92,2.76-7.95,2.21-11.25-2.49.36-6.75,3.92-9.86,4.74,3.22.08-2.79,2.79-2.09,3.49-1.58.4-1.61-1.61-.02-1.92l.03.27c3.05-3.15-3.44-.5-2.44-2.6-6.84,1.01-13.9.93-20.7,2.25l1.15,1.96-1.9.37c-.62-.36-1.1-1.48.27-1.75-1.02-1.02-1.99,1.61-1.89,2.08-2.85-.16.35-2.74-.46-2.58l-1.06.45.32.18c-.7,1.91-2.05,3.48-3.42,1.29.05-.25-2.74.73-3.04.67l1.46,1.36c-.78,1.13-2.21.59-.55,2.13-2.51-2.42-8.92,1.89-10.16,1.44-.95,1.74-2.34,2.22-4.1,2.81.56.15,1.55,1.84.03,2.25-1.05-3.93-3.34-.45-5.71-2.57,1.83,1.23-3.92,2.38-1.12,4.07-1.33.28-.72-1.32-2.04-1.74-2.42,2.88-7.03,2.3-9.96,4.64.21.49,1.17.87.83,1.97l-3.11-1.25c-.55.62.92,2.98-1.24,2.12.4.28,1,.71.64,1.11-8.05,1.93-12.33,10.39-20.88,11.31,1.48.12.98.65.38,1.19.56-.14.81,1.02,1.35,1.51-1.36.18-3.08.28-4.25,1.05.59,1.96-3.51,5.61-1.05,7.53-.19-.98-.14-1.77-.05-2.48,1.36,2.31,5.47-.75,7.75,1.87-1.35-2.12,4.84.73,4.1-3.33.77.13.23,1.01.86,1.35-.29-1.33.1-2.03,1.53-2.39l.06.33c3.04-2.63,5.1-2.58,8.83-4.21l-1.05-1c.86-.36,1.27-.1,1.81-.04-.33-2.39-2.18,1.35-2.72-1.16,2.57,1.66,5.48-3.49,7.9-1.14,1.19-.73-1.21-1.19,0-1.91l.78.58-.28-1.16c.9-.3,1.86.43,2.27,1.06-.24.03-.44.5-.61.67,1.55.32,2.7-1.97,3.22-1.88l-1.43.19c2.9-2.66,7.56-3.74,10.1-6.93l-.54-.48c2.04-2.37,2.36-.32,4.97-2.09l-.04.19c.3-.86.94-1.51,1.75-1.78-.41,1.04,1.94.82,1.33,2.03,2.33-2.37,1-1.52,1.98-4.59l.84.86c.29-1.19.15-1.71,1.52-2.56-.87,1.37,1.52,1.22.62,2.93,3.87,1.18,3.77-3.93,6.32-1.06.46-3.42-3.21-.69-2.63-1.59-1-.72.44-2.59,1.53-2.64,1.04-.25,2.93,3.22,5.39,2.4-.25.06-.2.29-.45.35,1.15.48,1.52-1.61,3.04-.67.15-1.97,1.53-.3,1.1-2.64l-2.19,1.15c1.14-.94,1.69-3.97,4.24-3.25-.06.51-.55,1.3-.91,1.75.81.51,1.12-.78,1.95-.26.39,2.36-2.71,1.26-3.64,3.38.93.79,2.2-2.37,2.16.31.19-3.43,2.55-.28,3.69-3.07l.21,1.41c.22-.28.63-1.06,1.14-1.14l-.49,2c.95-1.84,2.84.69,3.94-.36-2.11.73-1.06-1.54-2.23-2.32,2.7-2.66,2.15,2.76,3.53,2.37-.37.05-.5-1.11-.25-1.49.31.24.61.74.55,1.51.98-.57.27-1.69.94-2.55-.17,1.81,1.26-1.46,1.82-1.56l-.76,1.6c.75.85,2.33-3.45,3.18-2.41-.8.8-1.53,1.6-2.2,2.39.34-.22.69-.46,1.08-.69l-1.52,1.91c1.61-1.47,1.7-1.14,1.73-.66.84-.97,2.84-3,4.03-3.27-.31.59-1.09,1.01-1.27,1.41.01.06.3-.11.26.14-1.31.88-2.87,2.25-1.55.72-.52.65-3.22,2.21-1.63,2.27.5-.98,2.14-1.32,3.06-1.52-.75.71-1.31.92-1.87,1.19.19.07,1.04-.35,1.12-.05-1.53.84-3.11,1.78-3.81,2.02.55-.2,1.06-.3,1.57-.31-.68.44-1.87,1.24-2.4,1.4-.82.42,2.62-.17,1.27.75.25,0,.47.04.61.16-.53.74-2.05.54-.84,1.77-.64-.16-1.65-.11-2.31-.06-.25,1.62,3.07-.26,2.64,2.48-.23,2.01-1.92-.18-2.74.15.5,1.3,1.67,3.81-.73,4.55-.06-.71.46-.96.57-1.52ZM71.9,56.08c-.21-.26-1.11-.66.35-1.63,2.14-.52.79.4-.35,1.63ZM89.53,61.27c-.76.83-1.19.74-1.31.19.57-.36,1.03-.48,1.31-.19ZM163.12,58.33s-.04-.02-.06-.03c.7-.2.43-.14.06.03ZM162.15,58.99c.18.09.4.09.63.06-.37-.06-.32-.24-.13-.42-.41,0-.74.1-.5.36ZM66.65,8.81l.48.25c-.71.65-.59.22-.48-.25Z" fill="#ed1c24"/>
  <path d="M82.74,66.23c.12-.32.39-.73.68-1.15-.5.48-.86.94-.68,1.15Z" fill="#ed1c24"/>
  <path d="M88.69,21.71s.01-.01.02-.02c-.09,0-.19,0-.29.01h.26Z" fill="#ed1c24"/>
  <path d="M148.48,47.44c-.06-.2-.01-.48.07-.77-.22.4-.29.72-.07.77Z" fill="#ed1c24"/>
  <path d="M165.15,61.07c-.2.04-.42.08-.65.1.21.03-.05.25-.18.45.31-.23.72-.58.83-.55Z" fill="#ed1c24"/>
  <path d="M166.53,71.49c.23-.09.36.13.59.03l.22-.64c-.72-.25-1.42.04-.81.61Z" fill="#ed1c24"/>
  <path d="M161.33,64.6c-.98.89-.09.85.6.93-.04-.01-.07-.02-.1-.05,1.35-1.25.5-1.03-.51-.89Z" fill="#ed1c24"/>
  <path d="M162.09,65.56c.21.03.4.08.52.21.49-.53-.1-.2-.52-.21Z" fill="#ed1c24"/>
  <path d="M162.65,59.88c-.42.2,1.77-.17,1.17-.02,1.69-.08-1.85-.56-1.17.02Z" fill="#ed1c24"/>
  <path d="M158.57,67.75c.3-.41.62-.82.95-1.22-.45.23-.92.46-1.41.68l.46.55Z" fill="#ed1c24"/>
  <path d="M155.07,63.17c-.16.47-.22.94-.18,1.39.29-.14.54-.07.79.02-.44-.64-.08-1.62-.61-1.41Z" fill="#ed1c24"/>
  <path d="M155.68,64.58c.2.33.54.55.98.53-.19-.11-.59-.37-.98-.53Z" fill="#ed1c24"/>
  <path d="M156.49,67.22l-.1-.37c-.26-.17-.51-.33-.76-.51.27.3.55.59.86.88Z" fill="#ed1c24"/>
  <path d="M160.44,49.88l.19-1.48c-.43-.06-.89.37-.92.87.2.3.17.86.73.61Z" fill="#ed1c24"/>
  <path d="M154.75,53.2c.41-.16.74-.08,1.3-.12l-1.81-.5c.18.19.35.4.52.62Z" fill="#ed1c24"/>
  <path d="M155.43,50.52c-.48-.04-1.27-.78-1.52.07.59-.06.7.75,1.52-.07Z" fill="#ed1c24"/>
  <path d="M149.64,42.03l.36-.08,1.35-3.27c-.6,1.12-1.14,2.2-1.71,3.35Z" fill="#ed1c24"/>
  <path d="M132.4,52.97c1.84.31-.03-1.94,1.7-1.4.24-.8-1.42-.44-1.15-1.14-.85.99-1.48.7-.55,2.54Z" fill="#ed1c24"/>
  <path d="M132.95,50.43c.14-.16.28-.34.42-.57-.25.25-.36.43-.42.57Z" fill="#ed1c24"/>
  <path d="M1.59,44.88c-.58.74-1.18,1.74-1.59,3.18.41-.83.93-1.48,1.56-2.08,0-.4.01-.73.04-1.11Z" fill="#ed1c24"/>
  <path d="M3.39,52.12c-.44.6-.81,1.31-1.09,2.07,1.06.64,2.2.96,3.37.96-.99-.5-2.36-1.94-2.28-3.03Z" fill="#ed1c24"/>
  <path d="M63.99,63.58c1.14-.42,1.76-1.35,2.24-2.23l-2.24,2.23Z" fill="#ed1c24"/>
  <path d="M77.87,39.92l-.29.4c.82-.22,1.62-.42,2.41-.6l-2.12.19Z" fill="#ed1c24"/>
  <path d="M84.25,24.24c-.25.38-.19,1.06-.47,1.46.22-1.07,2.49-.59.47-1.46Z" fill="#ed1c24"/>
</svg>